<svg width="289" height="204" viewBox="0 0 289 204" fill="none" xmlns="http://www.w3.org/2000/svg">
<rect width="289" height="181" fill="#979797"/>
<rect x="118" y="180" width="43" height="13" fill="#4E4D4D"/>
<rect width="228" height="9" transform="matrix(1 0 0 -1 50 202)" fill="#4E4D4D"/>
<rect x="14" y="15" width="264" height="155" fill="#4E4D4D"/>
<rect x="124" y="75" width="49" height="128" fill="#CC0000"/>
<ellipse cx="148.5" cy="76" rx="24.5" ry="22" fill="#CC0000"/>
<rect x="173" y="79" width="52" height="124" fill="#D9D9D9"/>
<rect x="173" y="79" width="52" height="124" fill="#D9D9D9"/>
<rect x="173" y="79" width="52" height="124" fill="#FFFEFE"/>
<ellipse cx="199" cy="76" rx="26" ry="22" fill="#FFFEFE"/>
<rect x="225" y="75" width="49" height="128" fill="#CC0000"/>
<line x1="274" y1="203.5" x2="124" y2="203.5" stroke="#979797"/>
<circle cx="167" cy="54" r="5" fill="#C3A63E"/>
<ellipse cx="175" cy="51.5" rx="5" ry="5.5" fill="#CEC571"/>
<ellipse cx="177.5" cy="59" rx="4.5" ry="5" fill="#C3A63E"/>
<ellipse cx="139.5" cy="50.5" rx="4.5" ry="5.5" fill="#DBB772"/>
<ellipse cx="163.5" cy="74" rx="4.5" ry="5" fill="#DBB772"/>
<ellipse cx="188" cy="43.5" rx="5" ry="5.5" fill="#D1CDAA"/>
<circle cx="170" cy="36" r="5" fill="#C4A63E"/>
<ellipse cx="181.5" cy="46.5" rx="4.5" ry="5.5" fill="#C4A63E"/>
<ellipse cx="158.5" cy="36" rx="4.5" ry="5" fill="#CEC571"/>
<ellipse cx="234.5" cy="54" rx="4.5" ry="5" fill="#DBB772"/>
<ellipse cx="163.5" cy="62" rx="4.5" ry="5" fill="#DBB772"/>
<ellipse cx="164.5" cy="46.5" rx="4.5" ry="5.5" fill="#C3A63E"/>
<ellipse cx="197.5" cy="51.5" rx="4.5" ry="5.5" fill="#CEC571"/>
<ellipse cx="171" cy="84.5" rx="5" ry="5.5" fill="#D1CDAA"/>
<ellipse cx="190" cy="51.5" rx="5" ry="5.5" fill="#DBB772"/>
<ellipse cx="171" cy="46.5" rx="5" ry="5.5" fill="#DBB772"/>
<ellipse cx="157.5" cy="46.5" rx="4.5" ry="5.5" fill="#D1CDAA"/>
<ellipse cx="160.5" cy="56" rx="4.5" ry="5" fill="#CEC571"/>
<ellipse cx="252.5" cy="51.5" rx="4.5" ry="5.5" fill="#CEC571"/>
<circle cx="231" cy="59" r="5" fill="#C3A63E"/>
<circle cx="243" cy="56" r="5" fill="#DBB772"/>
<circle cx="206" cy="54" r="5" fill="#D1CDAA"/>
<ellipse cx="214.5" cy="51.5" rx="4.5" ry="5.5" fill="#C3A63E"/>
<circle cx="172" cy="70" r="5" fill="#C3A63E"/>
<ellipse cx="216.5" cy="61" rx="4.5" ry="5" fill="#D9D9D9"/>
<circle cx="223" cy="57" r="5" fill="#CEC571"/>
<ellipse cx="216.5" cy="61" rx="4.5" ry="5" fill="#D9D9D9"/>
<circle cx="226" cy="67" r="5" fill="#CEC571"/>
<ellipse cx="216.5" cy="61" rx="4.5" ry="5" fill="#DBB772"/>
<circle cx="134" cy="59" r="5" fill="#CEC571"/>
<ellipse cx="143.5" cy="56" rx="4.5" ry="5" fill="#D1CDAA"/>
<circle cx="153" cy="54" r="5" fill="#CEC571"/>
<ellipse cx="211" cy="43.5" rx="5" ry="5.5" fill="#CEC571"/>
<ellipse cx="194" cy="45.5" rx="5" ry="5.5" fill="#CEC571"/>
<ellipse cx="143.5" cy="45.5" rx="4.5" ry="5.5" fill="#CEC571"/>
<ellipse cx="177.5" cy="40" rx="4.5" ry="5" fill="#CEC571"/>
<ellipse cx="181.5" cy="54" rx="4.5" ry="5" fill="#DBB772"/>
<circle cx="172" cy="62" r="5" fill="#CEC571"/>
<ellipse cx="249.5" cy="76" rx="24.5" ry="22" fill="#CC0000"/>
<g filter="url(#filter0_b_6_84)">
<ellipse cx="62.345" cy="25.205" rx="62.345" ry="25.205" transform="matrix(0.990742 -0.13576 0.142668 0.989771 140.901 116.39)" fill="#FFFEFE"/>
<path d="M267.538 124.477C268.008 127.744 266.827 131.129 264.185 134.474C261.541 137.821 257.463 141.091 252.232 144.096C241.774 150.103 226.799 154.995 209.79 157.326C192.781 159.657 177.003 158.978 165.251 156.015C159.374 154.532 154.529 152.485 151.042 149.978C147.556 147.472 145.464 144.536 144.993 141.27C144.522 138.003 145.703 134.618 148.346 131.273C150.989 127.926 155.067 124.656 160.298 121.652C170.757 115.644 185.731 110.752 202.741 108.421C219.75 106.091 235.527 106.769 247.279 109.733C253.157 111.215 258.001 113.262 261.488 115.769C264.974 118.275 267.067 121.211 267.538 124.477Z" stroke="black" stroke-opacity="0.2"/>
</g>
<path d="M152.766 141.222C153.049 141.38 153.521 141.584 154.182 141.833C154.857 142.079 155.472 142.16 156.025 142.074C156.592 141.987 156.84 141.726 156.769 141.291C156.737 141.094 156.63 140.935 156.449 140.815C156.265 140.681 155.946 140.548 155.492 140.416C155.039 140.284 154.698 140.181 154.47 140.109C154.24 140.023 153.926 139.882 153.53 139.687C153.145 139.477 152.837 139.248 152.608 139C151.959 138.331 151.54 137.418 151.352 136.259C151.164 135.101 151.434 134.061 152.162 133.139C152.902 132.202 153.97 131.626 155.367 131.41C156.315 131.264 157.209 131.233 158.047 131.32C158.883 131.393 159.34 131.592 159.42 131.917C159.427 131.957 159.433 131.996 159.439 132.036C159.514 132.496 159.464 133.104 159.29 133.86C159.113 134.602 158.972 135.022 158.866 135.119C157.953 134.815 157.16 134.715 156.488 134.819C155.829 134.921 155.538 135.208 155.615 135.682C155.662 135.972 155.947 136.191 156.471 136.339C156.585 136.375 156.748 136.424 156.961 136.486C157.174 136.548 157.416 136.625 157.688 136.718C157.97 136.796 158.273 136.911 158.595 137.063C158.928 137.201 159.291 137.401 159.685 137.664C160.49 138.214 160.981 139.029 161.156 140.108C161.385 141.516 161.183 142.728 160.551 143.743C159.919 144.758 158.795 145.404 157.178 145.68C156.387 145.802 155.659 145.847 154.992 145.816C154.338 145.782 153.743 145.61 153.206 145.302C152.67 144.994 152.358 144.57 152.27 144.03C152.183 143.49 152.195 142.942 152.307 142.385C152.417 141.815 152.57 141.427 152.766 141.222ZM165.883 139.115C166.092 140.405 166.685 140.974 167.66 140.824C168.292 140.726 168.799 140.52 169.18 140.205C169.378 140.174 169.591 140.492 169.821 141.158C170.062 141.809 170.203 142.259 170.243 142.509C170.282 142.746 170.274 142.909 170.221 142.998C169.594 143.54 168.674 143.905 167.461 144.092C166.249 144.28 165.142 143.992 164.14 143.229C163.149 142.451 162.528 141.286 162.275 139.733C162.021 138.167 162.231 136.839 162.905 135.75C163.592 134.659 164.627 134.007 166.011 133.793C167.408 133.578 168.431 133.764 169.08 134.351C169.222 134.478 169.317 134.686 169.364 134.975C169.409 135.252 169.412 135.602 169.373 136.026C169.272 136.905 169.042 137.44 168.681 137.631C168.63 137.652 168.552 137.671 168.447 137.687C168.355 137.701 168.223 137.641 168.053 137.505C167.455 137.071 166.999 136.879 166.682 136.927C166.379 136.974 166.141 137.173 165.969 137.523C165.796 137.874 165.767 138.404 165.883 139.115ZM176.139 142.53C176.154 142.622 175.562 142.76 174.363 142.946C173.16 143.104 172.551 143.144 172.539 143.065L171.474 136.511L170.94 136.594C170.729 136.626 170.538 136.528 170.365 136.298C170.204 136.053 170.092 135.74 170.03 135.358C169.8 133.937 170.106 133.161 170.949 133.031C171.542 132.939 172.066 133.047 172.521 133.355C172.974 133.649 173.238 134.026 173.313 134.487C173.502 133.905 173.802 133.42 174.212 133.033C174.633 132.631 175.087 132.392 175.574 132.316C176.339 132.198 176.832 132.325 177.054 132.695C177.111 132.794 177.156 132.949 177.19 133.16C177.222 133.357 177.215 133.729 177.169 134.276C177.136 134.821 177.073 135.222 176.98 135.479C176.886 135.736 176.826 135.867 176.8 135.871C176.774 135.875 176.641 135.848 176.402 135.791C176.174 135.718 175.975 135.695 175.803 135.721C175.302 135.799 175.116 136.232 175.245 137.022L176.139 142.53ZM187.035 140.321C186.284 140.936 185.257 141.344 183.952 141.546C182.647 141.747 181.476 141.476 180.436 140.733C179.395 139.976 178.747 138.815 178.493 137.249C178.236 135.669 178.458 134.333 179.158 133.24C179.872 132.145 180.888 131.496 182.205 131.292C183.523 131.089 184.592 131.268 185.413 131.829C186.247 132.388 186.742 133.149 186.898 134.109C187.244 136.241 186.192 137.497 183.741 137.875L182.377 138.086C182.441 138.48 182.591 138.741 182.828 138.866C183.075 138.976 183.41 138.999 183.832 138.934C184.754 138.791 185.596 138.445 186.358 137.896C186.369 137.881 186.443 137.964 186.581 138.145C186.989 138.662 187.225 139.118 187.289 139.513C187.351 139.894 187.267 140.164 187.035 140.321ZM183.638 134.997C183.548 134.444 183.233 134.21 182.693 134.293C182.442 134.332 182.238 134.444 182.079 134.631C181.931 134.802 181.881 135.032 181.928 135.322L182.027 135.934L183.095 135.769C183.53 135.702 183.711 135.445 183.638 134.997ZM196.648 138.836C195.897 139.452 194.869 139.86 193.565 140.061C192.26 140.263 191.088 139.992 190.049 139.248C189.007 138.492 188.36 137.33 188.105 135.764C187.849 134.185 188.071 132.849 188.771 131.756C189.485 130.661 190.5 130.012 191.818 129.808C193.136 129.605 194.205 129.783 195.025 130.345C195.859 130.904 196.354 131.664 196.51 132.625C196.857 134.757 195.804 136.012 193.353 136.391L191.989 136.601C192.054 136.996 192.204 137.256 192.44 137.382C192.688 137.492 193.023 137.514 193.444 137.449C194.367 137.307 195.209 136.961 195.97 136.411C195.981 136.396 196.056 136.479 196.193 136.66C196.601 137.177 196.838 137.633 196.902 138.028C196.964 138.41 196.879 138.679 196.648 138.836ZM193.251 133.513C193.161 132.96 192.846 132.725 192.305 132.809C192.055 132.847 191.85 132.96 191.692 133.146C191.544 133.318 191.493 133.548 191.541 133.837L191.64 134.449L192.707 134.285C193.142 134.217 193.323 133.96 193.251 133.513ZM202.988 138.282C203.003 138.374 202.536 138.494 201.587 138.64C200.263 138.804 199.592 138.834 199.575 138.728L198.536 132.332L198.022 132.412C197.68 132.464 197.408 132.21 197.209 131.647C197.155 131.48 197.114 131.311 197.086 131.14C197.02 130.732 197.033 130.311 197.124 129.879C197.268 129.263 197.589 128.917 198.09 128.839C198.591 128.762 199.058 128.811 199.492 128.987C199.926 129.163 200.228 129.359 200.398 129.576C201.113 128.737 202.043 128.229 203.19 128.052C204.336 127.875 205.217 128.056 205.831 128.595C206.445 129.134 206.867 130.108 207.096 131.516L208.058 137.439C208.083 137.597 207.53 137.763 206.396 137.938C205.276 138.111 204.703 138.119 204.678 137.961L203.751 132.255C203.644 131.597 203.36 131.304 202.899 131.375C202.767 131.396 202.592 131.483 202.374 131.638C202.154 131.78 202.016 131.883 201.958 131.945L202.988 138.282ZM213.318 131.871C213.6 132.03 214.073 132.233 214.734 132.482C215.409 132.728 216.023 132.809 216.577 132.723C217.143 132.636 217.391 132.375 217.321 131.941C217.289 131.743 217.182 131.584 217 131.464C216.817 131.33 216.498 131.198 216.044 131.065C215.59 130.933 215.249 130.83 215.022 130.758C214.791 130.672 214.478 130.531 214.082 130.336C213.696 130.126 213.389 129.897 213.16 129.649C212.511 128.98 212.092 128.067 211.904 126.909C211.716 125.75 211.986 124.71 212.714 123.788C213.454 122.851 214.522 122.275 215.918 122.059C216.867 121.913 217.76 121.883 218.598 121.969C219.434 122.042 219.892 122.242 219.972 122.566C219.978 122.606 219.985 122.645 219.991 122.685C220.066 123.146 220.016 123.754 219.842 124.509C219.665 125.251 219.524 125.671 219.418 125.768C218.504 125.464 217.711 125.364 217.039 125.468C216.381 125.57 216.09 125.857 216.167 126.331C216.214 126.621 216.499 126.84 217.023 126.988C217.137 127.025 217.3 127.074 217.513 127.135C217.725 127.197 217.968 127.274 218.239 127.367C218.522 127.445 218.825 127.56 219.146 127.713C219.479 127.85 219.843 128.05 220.237 128.313C221.042 128.863 221.532 129.678 221.708 130.757C221.937 132.165 221.735 133.377 221.103 134.392C220.471 135.407 219.346 136.053 217.73 136.33C216.939 136.452 216.21 136.497 215.543 136.465C214.889 136.431 214.294 136.26 213.758 135.951C213.222 135.643 212.91 135.219 212.822 134.679C212.734 134.14 212.747 133.591 212.859 133.034C212.969 132.464 213.122 132.076 213.318 131.871ZM228.1 134.404C228.115 134.496 227.648 134.616 226.699 134.762C225.375 134.926 224.705 134.956 224.688 134.85L223.649 128.454L223.135 128.534C222.792 128.586 222.521 128.331 222.321 127.769C222.267 127.602 222.226 127.433 222.199 127.262C222.132 126.854 222.145 126.433 222.237 126.001C222.38 125.385 222.702 125.039 223.203 124.961C223.703 124.884 224.171 124.933 224.604 125.109C225.038 125.285 225.34 125.481 225.511 125.698C226.225 124.859 227.156 124.351 228.302 124.174C229.449 123.997 230.329 124.178 230.943 124.717C231.558 125.256 231.979 126.23 232.208 127.638L233.17 133.561C233.196 133.719 232.642 133.885 231.509 134.06C230.389 134.233 229.816 134.24 229.79 134.083L228.864 128.377C228.757 127.719 228.473 127.426 228.011 127.497C227.88 127.517 227.705 127.605 227.487 127.76C227.267 127.902 227.128 128.005 227.071 128.067L228.1 134.404ZM234.956 126.121C234.48 125.52 234.209 125.016 234.143 124.608C234.074 124.186 234.143 123.899 234.347 123.746C235.045 123.301 236.046 122.978 237.351 122.777C238.668 122.573 239.648 122.739 240.288 123.274C240.927 123.796 241.343 124.656 241.538 125.853L242.045 128.973L242.717 128.869C242.941 128.834 243.133 128.939 243.295 129.184C243.469 129.427 243.594 129.779 243.669 130.239C243.744 130.7 243.699 131.172 243.534 131.657C243.383 132.139 243.11 132.41 242.714 132.471C242.003 132.581 241.399 132.479 240.902 132.164C240.678 132.037 240.496 131.869 240.354 131.662C239.872 132.519 238.992 133.046 237.714 133.243C236.752 133.392 235.886 133.175 235.116 132.592C234.346 132.01 233.885 131.251 233.733 130.317C233.385 128.172 234.495 126.901 237.065 126.504L238.152 126.336L238.12 126.139C238.064 125.796 237.969 125.588 237.836 125.515C237.713 125.426 237.448 125.413 237.039 125.476C236.539 125.553 235.844 125.768 234.956 126.121ZM237.127 129.509C237.174 129.799 237.29 130.01 237.474 130.144C237.655 130.264 237.865 130.306 238.102 130.269C238.352 130.231 238.56 130.098 238.726 129.87L238.479 128.35L237.925 128.435C237.293 128.533 237.027 128.891 237.127 129.509ZM247.532 126.506C247.742 127.796 248.334 128.366 249.309 128.215C249.942 128.117 250.448 127.911 250.829 127.596C251.027 127.565 251.241 127.883 251.471 128.549C251.711 129.2 251.852 129.65 251.893 129.9C251.931 130.137 251.924 130.3 251.871 130.389C251.243 130.932 250.323 131.296 249.111 131.483C247.898 131.671 246.791 131.383 245.789 130.62C244.798 129.842 244.177 128.677 243.925 127.124C243.67 125.558 243.88 124.23 244.554 123.141C245.241 122.05 246.277 121.398 247.66 121.184C249.057 120.969 250.08 121.155 250.73 121.743C250.872 121.869 250.966 122.077 251.013 122.367C251.058 122.643 251.061 122.993 251.022 123.418C250.922 124.296 250.691 124.831 250.33 125.022C250.28 125.043 250.202 125.062 250.096 125.078C250.004 125.092 249.873 125.032 249.702 124.896C249.105 124.462 248.648 124.27 248.332 124.319C248.029 124.365 247.791 124.564 247.618 124.915C247.445 125.265 247.417 125.796 247.532 126.506ZM251.244 116.948C251.21 116.737 251.792 116.54 252.991 116.354C254.118 116.221 254.692 116.22 254.713 116.352L255.945 123.932L257.314 120.017C257.375 119.806 257.919 119.621 258.946 119.462C259.974 119.303 260.644 119.267 260.955 119.354L259.065 123.936L262.931 129.025C262.966 129.074 262.722 129.152 262.2 129.26C261.692 129.379 261.267 129.465 260.924 129.517C259.659 129.713 258.971 129.758 258.86 129.654L256.191 125.574L256.9 129.937C256.927 130.108 256.362 130.283 255.202 130.462C254.056 130.639 253.47 130.648 253.444 130.491L251.244 116.948Z" fill="#4E4D4D"/>
<defs>
<filter id="filter0_b_6_84" x="140.391" y="102.523" width="131.748" height="60.7021" filterUnits="userSpaceOnUse" color-interpolation-filters="sRGB">
<feFlood flood-opacity="0" result="BackgroundImageFix"/>
<feGaussianBlur in="BackgroundImageFix" stdDeviation="2"/>
<feComposite in2="SourceAlpha" operator="in" result="effect1_backgroundBlur_6_84"/>
<feBlend mode="normal" in="SourceGraphic" in2="effect1_backgroundBlur_6_84" result="shape"/>
</filter>
</defs>
</svg>
